<svg viewBox="0 0 262 219" fill="none" xmlns="http://www.w3.org/2000/svg">
<path d="M162.452 192.571C121.076 170.781 114.208 179.864 79.6841 198.738C42.2827 219.185 8.28708 187.876 3.84484 161.295C-8.82048 85.4822 30.2439 17.0365 77.1657 2.67049C104.169 -5.59805 156.636 3.74437 160.519 53.2958C162.284 75.8306 152.89 96.364 176.11 104.855C200.13 113.639 236.803 93.3285 247.046 135.675C257.199 177.64 201.132 212.941 162.452 192.571Z" fill="#F0F8FF"/>
<path d="M96.3707 34.481H60.3081V173.118H96.3707V34.481Z" fill="#0000FF"/>
<path d="M96.3707 34.481H92.8125V173.118H96.3707V34.481Z" fill="#9EC3DD"/>
<path d="M189.375 128.776H60.3081V165.674H189.375V128.776Z" fill="#0000FF"/>
<path d="M193.887 128.776H176.646V154.16H193.887V128.776Z" fill="#9EC3DD"/>
<path d="M191.74 132.267H179.24V154.16H191.74V132.267Z" fill="#6995B2"/>
<path d="M67.6029 34.481H30.5322V187.87H67.6029V34.481Z" fill="#00009F"/>
<path d="M170.811 151.836H30.2363V187.87H170.811V151.836Z" fill="#07078B"/>
<path d="M199.722 151.836H170.811V187.87H199.722V151.836Z" fill="#9EC3DD"/>
<path d="M196.119 156.79H175.161V187.869H196.119V156.79Z" fill="#6995B2"/>
<path d="M186.557 34.481H96.3706V128.776H186.557V34.481Z" fill="#89B8E0"/>
<path d="M182.675 34.481H96.3706V128.776H182.675V34.481Z" fill="#AACEF2"/>
<path opacity="0.29" d="M143.423 34.481L104.689 128.776H135.136L172.906 34.481H143.423Z" fill="white"/>
<path opacity="0.29" d="M182.675 67.1431L158.552 128.776H176.646L182.675 111.175V67.1431Z" fill="white"/>
<path d="M131 216.837C203.349 216.837 262 213.494 262 209.37C262 205.246 203.349 201.903 131 201.903C58.6507 201.903 0 205.246 0 209.37C0 213.494 58.6507 216.837 131 216.837Z" fill="#D6E6F2"/>
<path d="M247.557 197.359C247.557 197.359 251.996 196.401 252.721 196.737C254.887 197.734 256.121 206.02 254.998 208.978C254.842 209.391 254.2 209.873 253.256 209.135C252.311 208.397 250.712 203.855 248.887 204.384C247.061 204.909 247.557 197.359 247.557 197.359Z" fill="#FFA60E"/>
<path d="M214.109 202.871C214.109 202.871 238.008 188.329 241.659 183.718C244.495 180.134 248.359 171.782 239.643 166.093C230.86 160.365 195.853 190.723 198.845 203.466C201.558 215.02 214.109 202.871 214.109 202.871Z" fill="#0000D0"/>
<path d="M217.772 164.61C217.072 165.448 212.245 176.536 208.719 176.892C206.162 177.148 203.399 169.142 203.399 169.142C203.399 169.142 206.875 169.531 209.87 160.072C212.395 152.103 217.772 164.61 217.772 164.61Z" fill="#E9B79C"/>
<path d="M208.817 169.637L193.656 168.078C193.322 167.992 192.991 167.892 192.68 167.709C192.19 167.423 191.691 167.137 191.185 166.881C190.155 166.353 189.071 165.904 187.939 165.681C187.083 165.511 186.202 165.591 185.338 165.701C183.821 165.89 182.317 166.17 180.828 166.535C180.332 166.655 179.407 166.712 179.01 167.071C178.615 167.426 178.787 168.055 179.197 168.314C179.448 168.474 179.747 168.524 180.037 168.57C181.105 168.74 182.18 168.919 183.258 169.032C184.101 169.119 184.733 168.972 185.554 169.385C185.668 169.445 185.789 169.504 185.865 169.611C185.942 169.717 185.958 169.883 185.865 169.976C185.805 170.036 185.719 170.053 185.636 170.07C185.121 170.169 184.212 170.542 183.887 171.001C183.465 171.602 184.374 171.995 184.857 172.008C185.363 172.021 185.846 171.822 186.314 171.626C186.803 171.419 187.293 171.217 187.783 171.01C188.193 170.838 188.61 170.665 189.048 170.618C189.738 170.545 190.244 170.818 190.845 171.107C191.567 171.456 192.266 171.868 192.972 172.254C194.012 172.822 195.026 173.338 196.124 173.783C197.262 174.249 198.413 174.684 199.577 175.087C201.962 175.904 204.455 176.649 206.976 176.795C207.247 176.812 207.52 176.819 207.79 176.815C213.533 176.732 208.817 169.637 208.817 169.637Z" fill="#E9B79C"/>
<path d="M211.352 146.288C213.19 141.201 220.29 138.169 223.626 139.469C225.442 140.177 224.535 144.48 224.561 147.173C224.605 151.904 221.721 159.757 216.408 166.748C214.462 169.308 206.588 167.979 207.332 162.436C208.302 155.158 209.345 151.84 211.352 146.288Z" fill="#D3841C"/>
<path d="M214.051 142.956C216.789 138.063 233.13 133.674 237.792 138.638C237.792 138.638 239.56 142.288 240.737 145.413C240.218 148.715 238.546 152.119 238.775 154.623C239.964 167.662 248.61 165.189 248.511 168.321C248.336 173.939 237.528 179.229 229.356 179.259C226.462 179.269 220.293 174.661 219.559 173.268C213.625 162.03 212.954 144.915 214.051 142.956Z" fill="#E79E30"/>
<path d="M250.473 199.284C251.669 201.894 250.086 204.982 247.383 205.598C238.031 207.735 205.444 211.492 201.437 207.4C195.284 201.116 200.121 193.685 210.719 193.289C217.588 193.033 240.419 196.235 246.759 196.634C248.298 196.731 249.675 197.658 250.381 199.088C250.413 199.154 250.445 199.217 250.473 199.284Z" fill="#0000D0"/>
<path d="M210.159 184.758C210.159 184.758 233.757 186.79 239.074 186.916C247.939 187.125 253.014 176.343 245.917 169.285C243.522 166.904 200.607 166.489 197.911 175.974C194.985 186.284 210.159 184.758 210.159 184.758Z" fill="#0000FF"/>
<path d="M223.473 128.451C223.473 128.451 217.384 132.93 217.991 133.362C218.602 133.794 218.424 135.277 218.869 136.447C219.346 137.717 219.104 139.386 218.576 141.105C218.204 142.312 219.915 142.817 221.152 142.555C226.478 141.424 228.796 138.076 227.067 136.796C223.181 133.917 223.473 128.451 223.473 128.451Z" fill="#E9B79C"/>
<path d="M218.869 136.447C218.424 135.277 218.602 133.794 217.991 133.362C217.381 132.929 223.954 128.099 223.954 128.099C223.954 128.099 223.34 129.798 223.88 131.713C222.551 134.658 220.634 136.71 219.12 138.269C219.143 137.66 219.041 136.906 218.869 136.447Z" fill="#C58063"/>
<path d="M212.697 121.881C210.795 125.419 211.559 134.452 216.02 136.979C218.472 138.369 223.486 133.591 224.447 127.839C224.571 127.091 224.109 123.324 221.174 120.272C219.852 118.886 214.675 118.204 212.697 121.881Z" fill="#E9B79C"/>
<path d="M211.937 129.585C212.134 130.073 210.652 124.478 213.266 122.919C214.328 122.287 214.586 123.677 215.928 123.218C217.072 122.826 219.441 118.956 221.009 126.695C221.085 127.068 221.546 127.344 221.817 127.59C222.151 127.892 221.931 129.013 222.109 129.438C222.281 129.847 222.923 128.082 223.063 128.504C223.289 129.179 223.089 129.957 223.302 130.642C223.69 131.899 224.389 130.798 224.548 130.053C224.768 129.033 224.99 128.015 225.21 126.995C225.321 126.476 225.426 125.991 225.346 125.465C225.315 125.246 225.063 124.199 225.197 124.062C225.474 123.786 225.814 123.58 226.179 123.474C225.763 122.417 225.222 121.403 224.472 120.571C223.721 119.74 222.752 119.102 221.677 118.889C222.068 118.763 222.45 118.603 222.815 118.407C222.879 118.374 222.942 118.334 222.968 118.267C223.016 118.138 222.885 118.015 222.767 117.945C221.922 117.43 220.996 117.051 220.042 116.821C219.464 116.681 217.81 116.259 217.314 116.775C217.502 116.578 217.626 116.322 217.67 116.05C216.071 116.622 214.532 117.39 213.101 118.331C213.237 117.799 213.327 117.257 213.361 116.708C212.166 117.612 211.155 118.829 210.671 120.285C210.124 121.944 210.446 123.497 211.244 124.98C211.415 125.299 211.314 125.406 211.282 125.698C211.237 126.1 211.295 126.539 211.333 126.948C211.425 127.856 211.6 128.75 211.937 129.585Z" fill="#53424D"/>
<path d="M221.031 128.78C221.031 128.78 222.297 125.951 223.639 126.024C224.987 126.1 224.726 130.103 222.224 130.649C219.731 131.194 220.615 129.575 221.031 128.78Z" fill="#E9B79C"/>
<path d="M219.4 128.142C219.451 128.082 219.343 128.202 219.32 128.222C219.231 128.301 219.139 128.378 219.034 128.434C218.624 128.651 218.319 128.434 218.077 128.099C217.924 127.889 217.619 128.165 217.769 128.375C218.306 129.119 219.152 129.056 219.737 128.365C219.909 128.162 219.572 127.942 219.4 128.142Z" fill="#201714"/>
<path d="M214.901 128.285C214.837 128.425 214.742 128.564 214.637 128.674C214.29 129.033 213.956 128.86 213.66 128.534C213.486 128.341 213.177 128.617 213.352 128.81C213.702 129.196 214.176 129.475 214.678 129.159C214.951 128.99 215.152 128.701 215.282 128.411C215.393 128.169 215.009 128.042 214.901 128.285Z" fill="#201714"/>
<path d="M213.463 126.546C214.036 126.16 214.653 126.283 215.104 126.809C215.317 127.051 215.654 126.682 215.444 126.44C214.846 125.748 213.975 125.592 213.212 126.111C212.945 126.287 213.199 126.726 213.463 126.546Z" fill="#4D2F20"/>
<path d="M217.712 126.659C218.16 126.127 218.786 126.071 219.359 126.446C219.626 126.623 219.855 126.17 219.591 125.994C218.837 125.499 217.956 125.595 217.355 126.31C217.146 126.559 217.502 126.905 217.712 126.659Z" fill="#4D2F20"/>
<path d="M216.188 127.357C216.427 127.756 216.618 128.238 216.608 128.71C216.595 129.395 215.982 129.874 215.74 130.502C215.409 131.367 216.036 131.653 216.932 131.663C217.149 131.666 217.177 131.37 216.961 131.367C214.945 131.344 216.862 129.718 216.939 128.817C216.983 128.255 216.777 127.68 216.494 127.204C216.395 127.041 216.09 127.194 216.188 127.357Z" fill="#C58063"/>
<path d="M218.723 132.039C218.723 132.039 219.289 133.694 217.95 134.09C216.608 134.486 216.061 133.013 216.061 133.013L218.723 132.039Z" fill="#FAFFFF"/>
<path d="M221.171 130.752C221.139 131.301 220.691 131.716 220.169 131.686C219.645 131.653 219.247 131.184 219.279 130.639C219.311 130.09 219.759 129.675 220.281 129.705C220.802 129.735 221.203 130.203 221.171 130.752Z" fill="#DEA296"/>
<path d="M212.846 130.715C213.158 130.266 213.759 130.167 214.188 130.492C214.618 130.818 214.713 131.447 214.401 131.895C214.09 132.344 213.489 132.444 213.059 132.118C212.63 131.792 212.535 131.167 212.846 130.715Z" fill="#DEA296"/>
<path d="M217.451 169.365C217.451 169.365 211.981 152.442 213.991 142.498L215.791 141.032C215.791 141.032 214.923 158.211 219.276 160.711C223.629 163.211 233.585 158.566 229.073 136.457H232.79C234.441 136.866 244.324 171.39 244.324 171.39L217.451 169.365Z" fill="#0000FF"/>
<path d="M244.457 155.657C244.871 156.651 252.795 167.852 251.593 171.253C250.721 173.72 242.743 172.968 242.743 172.968C242.743 172.968 241.395 165.9 238.123 161.468C233.337 154.988 244.457 155.657 244.457 155.657Z" fill="#E9B79C"/>
<path d="M249.526 172.656C243.977 174.278 226.819 172.18 226.819 172.18L229.121 168.427L248.658 165.451C248.658 165.451 255.075 171.03 249.526 172.656Z" fill="#E9B79C"/>
<path d="M228.332 168.115C227.995 167.839 227.804 167.42 227.56 167.044C227.095 166.336 226.434 165.821 225.776 165.325C225.41 165.049 224.949 164.015 224.392 164.191C223.48 164.477 224.691 165.974 224.841 166.392C224.977 166.778 224.949 167.273 224.634 167.516C224.427 167.676 224.148 167.689 223.89 167.679C223.066 167.652 222.256 167.486 221.438 167.37C221.015 167.31 220.592 167.28 220.166 167.25C219.848 167.227 219.432 167.064 219.123 167.124C218.879 167.174 218.659 167.446 218.767 167.716C218.866 167.955 219.108 167.912 219.311 167.965C219.769 168.088 220.224 168.221 220.678 168.361C220.777 168.391 221.251 168.464 221.295 168.577C221.508 169.122 220.24 168.946 220.036 168.926C219.527 168.879 218.996 168.853 218.532 169.129C218.472 169.165 218.408 169.215 218.398 169.288C218.382 169.401 218.503 169.481 218.605 169.521C219.212 169.76 219.89 169.76 220.491 170.013C220.589 170.053 220.697 170.119 220.71 170.229C220.755 170.671 219.909 170.738 219.632 170.784C219.457 170.814 219.244 170.867 219.203 171.047C219.177 171.163 219.247 171.286 219.346 171.353C219.441 171.419 219.559 171.443 219.674 171.463C220.007 171.526 220.351 171.622 220.691 171.642C220.853 171.652 221.34 171.632 221.378 171.865C221.384 171.911 221.362 171.955 221.333 171.991C221.232 172.121 221.063 172.161 220.91 172.214C220.758 172.271 220.596 172.374 220.583 172.543C220.567 172.749 220.783 172.889 220.971 172.952C221.651 173.178 222.411 173.148 223.117 173.155C223.874 173.162 224.628 173.132 225.381 173.068C226.326 172.989 227.257 172.836 228.189 172.66C228.905 172.523 229.779 172.576 230.453 172.32C230.956 172.131 231.29 171.612 231.423 171.07C231.553 170.542 231.534 169.993 231.614 169.454C231.662 169.125 231.709 168.856 231.461 168.63C231.165 168.361 228.908 168.411 228.685 168.324C228.552 168.268 228.437 168.198 228.332 168.115Z" fill="#E9B79C"/>
<path d="M231.509 147.564C230.154 143.611 230.275 139.342 233.458 137.953C235.264 137.165 238.902 138.724 240.559 140.782C243.742 144.738 247.685 151.188 248.458 160.052C248.741 163.3 242.101 168.051 238.953 163.54C234.816 157.618 233.417 153.133 231.509 147.564Z" fill="#E79E30"/>
<path d="M235.474 205.604C235.474 205.604 238.978 208.61 239.185 209.411C239.805 211.798 234.425 218.015 231.518 218.966C231.111 219.099 230.351 218.88 230.307 217.646C230.259 216.413 232.628 212.257 231.089 211.106C229.547 209.953 235.474 205.604 235.474 205.604Z" fill="#FFA60E"/>
<path d="M236.921 208.849C236.072 211.519 232.968 212.559 230.679 211.08C222.755 205.966 197.542 185.563 197.386 179.867C197.147 171.127 205.332 169.345 212.999 176.563C217.966 181.237 231.862 199.61 236.037 204.37C237.051 205.527 237.414 207.147 236.985 208.646C236.962 208.716 236.943 208.782 236.921 208.849Z" fill="#0000FF"/>
<path d="M160.787 56.0557L162.418 59.1742L165.401 60.8798L162.418 62.5854L160.787 65.704L159.155 62.5854L156.173 60.8798L159.155 59.1742L160.787 56.0557Z" fill="white"/>
</svg>
